/* XPM */
static char * bitcoin32_xpm[] = {
"32 32 680 2",
"  	c None",
". 	c #C9C6BE",
"+ 	c #CAC7BF",
"@ 	c #D1CEC6",
"# 	c #D0CDC5",
"$ 	c #C5C3BB",
"% 	c #D3D1C9",
"& 	c #D2CFC7",
"* 	c #BAB9AB",
"= 	c #ADAD98",
"- 	c #A1A288",
"; 	c #A0A184",
"> 	c #ACAC97",
", 	c #BAB9AC",
"' 	c #C5C2BB",
") 	c #C2BFB7",
"! 	c #D6D3CC",
"~ 	c #C2C0B5",
"{ 	c #9C9F84",
"] 	c #979D73",
"^ 	c #A7AD86",
"/ 	c #AFB590",
"( 	c #B0B590",
"_ 	c #B0B691",
": 	c #A7AD85",
"< 	c #969C72",
"[ 	c #9C9F83",
"} 	c #C2C1B6",
"| 	c #C1BEB7",
"1 	c #CECCC5",
"2 	c #CECDC4",
"3 	c #979B80",
"4 	c #969F75",
"5 	c #A7AF89",
"6 	c #A8AF8A",
"7 	c #A9B18C",
"8 	c #B4BA9D",
"9 	c #B8BEA3",
"0 	c #B3BA9C",
"a 	c #AAB18C",
"b 	c #A9B08B",
"c 	c #A8AF89",
"d 	c #959E73",
"e 	c #979B7F",
"f 	c #CFCDC4",
"g 	c #CECCC4",
"h 	c #D4D2CB",
"i 	c #BDBCB1",
"j 	c #848F65",
"k 	c #9CA780",
"l 	c #9FAA83",
"m 	c #A3AD89",
"n 	c #C1C7B4",
"o 	c #D9DCD3",
"p 	c #E0E8E1",
"q 	c #C8E5ED",
"r 	c #BAE3F0",
"s 	c #BBE3F0",
"t 	c #CAE5ED",
"u 	c #DAE6E6",
"v 	c #D7DBD1",
"w 	c #BFC5B1",
"x 	c #A3AD88",
"y 	c #A1AB85",
"z 	c #9DA780",
"A 	c #838E63",
"B 	c #BDBDB1",
"C 	c #D4D1CA",
"D 	c #B5B6A8",
"E 	c #7F8E61",
"F 	c #96A37C",
"G 	c #97A47E",
"H 	c #BCC3B0",
"I 	c #DEE4DE",
"J 	c #E6F1C1",
"K 	c #ABE7D3",
"L 	c #48DAF1",
"M 	c #83E2DE",
"N 	c #A6E9CB",
"O 	c #A9E9C9",
"P 	c #A1E8CE",
"Q 	c #7AE0E1",
"R 	c #74DCF1",
"S 	c #B4E2EE",
"T 	c #DBE2DE",
"U 	c #B9C0AB",
"V 	c #99A57F",
"W 	c #98A47E",
"X 	c #7E8C5F",
"Y 	c #B6B7AA",
"Z 	c #CFCDC6",
"` 	c #BCBDB2",
" .	c #76885C",
"..	c #8E9E76",
"+.	c #94A37F",
"@.	c #D2D6CC",
"#.	c #C4E5E3",
"$.	c #C6F1AB",
"%.	c #8BE5D3",
"&.	c #B1EDB9",
"*.	c #B7EEB4",
"=.	c #90E5D1",
"-.	c #68DFE4",
";.	c #64DEE6",
">.	c #6DDFE2",
",.	c #92E6CF",
"'.	c #B4EEB5",
").	c #B0EDB8",
"!.	c #77DFE5",
"~.	c #C4E4E9",
"{.	c #CDD2C6",
"].	c #94A37E",
"^.	c #909F78",
"/.	c #75875A",
"(.	c #BDBEB3",
"_.	c #C3C1BA",
":.	c #CFCEC7",
"<.	c #70835B",
"[.	c #849770",
"}.	c #8C9E7A",
"|.	c #D5DAD3",
"1.	c #A1E2E5",
"2.	c #B8F0AC",
"3.	c #9CE9C3",
"4.	c #B0EEB3",
"5.	c #77E2E8",
"6.	c #A8E9F5",
"7.	c #68DFF0",
"8.	c #28DAED",
"9.	c #29DAED",
"0.	c #4FDDE5",
"a.	c #AAEDB7",
"b.	c #96E8C6",
"c.	c #A7E1E8",
"d.	c #D2D6CE",
"e.	c #8C9D78",
"f.	c #869871",
"g.	c #71835A",
"h.	c #D0CFC7",
"i.	c #D9D7D1",
"j.	c #8B967F",
"k.	c #758D65",
"l.	c #7D936D",
"m.	c #CFD3CA",
"n.	c #9AE0E6",
"o.	c #A9EDB3",
"p.	c #98EABF",
"q.	c #9CEABD",
"r.	c #B0E3E7",
"s.	c #B2B9A5",
"t.	c #C0CDC0",
"u.	c #85E4EC",
"v.	c #33DCE7",
"w.	c #34DCE6",
"x.	c #83E6CB",
"y.	c #9FEBB9",
"z.	c #A8E2E4",
"A.	c #C8CEC3",
"B.	c #7F946D",
"C.	c #768D64",
"D.	c #8D9780",
"E.	c #D8D7D0",
"F.	c #C8C6C0",
"G.	c #C2C3BA",
"H.	c #627F55",
"I.	c #728C66",
"J.	c #AFB9A9",
"K.	c #BAE3E2",
"L.	c #6BE3D3",
"M.	c #A0ECB4",
"N.	c #A4EDB2",
"O.	c #ACE4E4",
"P.	c #88926D",
"Q.	c #BBD1C8",
"R.	c #5FE0E3",
"S.	c #3DDEE1",
"T.	c #3DDEE0",
"U.	c #3EDEE0",
"V.	c #5AE0E2",
"W.	c #99E7EA",
"X.	c #AEE9EA",
"Y.	c #A7EAEB",
"Z.	c #94E9CC",
"`.	c #8DE8C0",
" +	c #C4E4E1",
".+	c #A6B29F",
"++	c #768F68",
"@+	c #627E53",
"#+	c #C3C4BB",
"$+	c #D7D5CF",
"%+	c #899681",
"&+	c #63825C",
"*+	c #748E6D",
"=+	c #D7E0DB",
"-+	c #5BE0DC",
";+	c #91EABB",
">+	c #A5EEAA",
",+	c #5AE1D5",
"'+	c #B3C8BC",
")+	c #6D8150",
"!+	c #ACE9E6",
"~+	c #47DFDB",
"{+	c #47DFDA",
"]+	c #47E0DA",
"^+	c #6CE2DE",
"/+	c #B5E1DD",
"(+	c #B0BCAC",
"_+	c #82906C",
":+	c #687C45",
"<+	c #758659",
"[+	c #AFBBAA",
"}+	c #C5F1C1",
"|+	c #7CE3D1",
"1+	c #D6DDD6",
"2+	c #718C68",
"3+	c #65835C",
"4+	c #8C9884",
"5+	c #D7D6D0",
"6+	c #D5D5CE",
"7+	c #557752",
"8+	c #5E805B",
"9+	c #AAB6A7",
"0+	c #ADE3DB",
"a+	c #50E1D5",
"b+	c #98ECB1",
"c+	c #96ECB3",
"d+	c #B4D1C6",
"e+	c #617B4D",
"f+	c #C7EBCE",
"g+	c #96ECB2",
"h+	c #85E8BE",
"i+	c #A3E6DD",
"j+	c #ADBDAF",
"k+	c #99A58F",
"l+	c #B3C3B6",
"m+	c #B2C4B6",
"n+	c #7D8F6E",
"o+	c #607A48",
"p+	c #617A48",
"q+	c #B3BFAC",
"r+	c #A0EDB8",
"s+	c #B9E3DB",
"t+	c #A1AE9D",
"u+	c #62835D",
"v+	c #597953",
"w+	c #D6D5CF",
"x+	c #CDCCC6",
"y+	c #B8BCB3",
"z+	c #507853",
"A+	c #547B57",
"B+	c #CFD4CC",
"C+	c #74E3D1",
"D+	c #5AE3CF",
"E+	c #97ECAE",
"F+	c #88E9B9",
"G+	c #6DE5C7",
"H+	c #BAECCA",
"I+	c #80947B",
"J+	c #98AA98",
"K+	c #B3E5DB",
"L+	c #A9E9DD",
"M+	c #BBD7C6",
"N+	c #A9B5A5",
"O+	c #B8DFD1",
"P+	c #8CE7D6",
"Q+	c #5DE3CE",
"R+	c #60E3CE",
"S+	c #B4E5D8",
"T+	c #7E9277",
"U+	c #59794C",
"V+	c #8C9C85",
"W+	c #B1EFC2",
"X+	c #8CE5CD",
"Y+	c #C7CCC4",
"Z+	c #587D59",
"`+	c #527853",
" @	c #BABDB4",
".@	c #CFCEC8",
"+@	c #A1AA9E",
"@@	c #4C7654",
"#@	c #5F8165",
"$@	c #D4E2DA",
"%@	c #64E4C9",
"&@	c #65E5C9",
"*@	c #8BEAB5",
"=@	c #88EAB6",
"-@	c #91ECB0",
";@	c #85E9B8",
">@	c #BBE9C9",
",@	c #AFC0B3",
"'@	c #96A796",
")@	c #668568",
"!@	c #9FB1A2",
"~@	c #B8EDC3",
"{@	c #82E9BA",
"]@	c #67E5C7",
"^@	c #68E5C7",
"/@	c #AFE5D3",
"(@	c #B2DBCA",
"_@	c #ACE7D3",
":@	c #7AE8C0",
"<@	c #7FE8BB",
"[@	c #D6DFD7",
"}@	c #517957",
"|@	c #4E7754",
"1@	c #A2AB9E",
"2@	c #D6D6D0",
"3@	c #859586",
"4@	c #487656",
"5@	c #7C9481",
"6@	c #C3E3D5",
"7@	c #6FE6C3",
"8@	c #6FE6C2",
"9@	c #7DE8BB",
"0@	c #95EDAC",
"a@	c #8FECB0",
"b@	c #79E8BD",
"c@	c #70E6C2",
"d@	c #8BEAB7",
"e@	c #C3D8C9",
"f@	c #98AC9E",
"g@	c #9EE9CD",
"h@	c #73E7C0",
"i@	c #8CEBB1",
"j@	c #71E7C1",
"k@	c #72E7C1",
"l@	c #72E7C0",
"m@	c #74E7BF",
"n@	c #85EAB6",
"o@	c #CEE3D7",
"p@	c #6E8B73",
"q@	c #4A7655",
"r@	c #889787",
"s@	c #D5D5CF",
"t@	c #798E7D",
"u@	c #447458",
"v@	c #889D8D",
"w@	c #BCE4CF",
"x@	c #79E8BC",
"y@	c #7AE8BC",
"z@	c #8BEBB2",
"A@	c #7CE8BB",
"B@	c #7DE9BA",
"C@	c #B8E6C9",
"D@	c #7E988A",
"E@	c #B3E7CC",
"F@	c #7BE8BB",
"G@	c #86EAB5",
"H@	c #80E9B8",
"I@	c #7CE9BB",
"J@	c #7CE9BA",
"K@	c #83EAB6",
"L@	c #C5E4D1",
"M@	c #79927F",
"N@	c #467557",
"O@	c #7F9181",
"P@	c #D6D5D0",
"Q@	c #788E7E",
"R@	c #407259",
"S@	c #879C8E",
"T@	c #BEE5CC",
"U@	c #84EAB6",
"V@	c #82EAB7",
"W@	c #81E9B8",
"X@	c #9BEAC1",
"Y@	c #94ABA1",
"Z@	c #AFCABC",
"`@	c #87EAB6",
" #	c #85EAB5",
".#	c #86EAB4",
"+#	c #87EAB4",
"@#	c #87EBB4",
"##	c #C6E4CE",
"$#	c #779080",
"%#	c #427359",
"&#	c #7E9182",
"*#	c #D8D7D2",
"=#	c #839589",
"-#	c #3C715A",
";#	c #779082",
">#	c #C7E4CC",
",#	c #8EECB0",
"'#	c #82E9B7",
")#	c #BCD7C9",
"!#	c #A7C5B8",
"~#	c #A8C6B8",
"{#	c #A1BAB0",
"]#	c #357366",
"^#	c #AFC4BB",
"/#	c #AAC6B6",
"(#	c #B6E5C5",
"_#	c #89EBB3",
":#	c #77E8BE",
"<#	c #90ECAE",
"[#	c #91ECAE",
"}#	c #91ECAD",
"|#	c #81E9B9",
"1#	c #D0E3D0",
"2#	c #698776",
"3#	c #3E725A",
"4#	c #86968A",
"5#	c #D1D0CB",
"6#	c #9EABA2",
"7#	c #38705C",
"8#	c #537A6A",
"9#	c #D5E1D2",
"0#	c #98EDA9",
"a#	c #BEE2C4",
"b#	c #ABD8C4",
"c#	c #BCD1C8",
"d#	c #2C716A",
"e#	c #98B1A7",
"f#	c #B5DBBC",
"g#	c #B3DABE",
"h#	c #A7E6C8",
"i#	c #7CE8BC",
"j#	c #9BEEA8",
"k#	c #9BEEA7",
"l#	c #9CEEA7",
"m#	c #92ECAF",
"n#	c #89EAB5",
"o#	c #D6DDD1",
"p#	c #3D6F5C",
"q#	c #3A705C",
"r#	c #A1ACA3",
"s#	c #D0CFCB",
"t#	c #B8BEB8",
"u#	c #35705F",
"v#	c #326A59",
"w#	c #CCCFC8",
"x#	c #A9EDA9",
"y#	c #A3EFA3",
"z#	c #BEDCC4",
"A#	c #9EB3AE",
"B#	c #9DB3AF",
"C#	c #7B9997",
"D#	c #236F6D",
"E#	c #87A29F",
"F#	c #9EB4AF",
"G#	c #B7D8CA",
"H#	c #83E9BA",
"I#	c #7AE7BF",
"J#	c #9FEEA7",
"K#	c #A5F0A2",
"L#	c #A5F0A1",
"M#	c #A6F0A1",
"N#	c #85E9BA",
"O#	c #ABEBB2",
"P#	c #C2C7C0",
"Q#	c #346A59",
"R#	c #37715F",
"S#	c #BABFB9",
"T#	c #D8D9D4",
"U#	c #377162",
"V#	c #2E675A",
"W#	c #A0ACA4",
"X#	c #C6E8BB",
"Y#	c #ADF19D",
"Z#	c #B1E8C1",
"`#	c #A4DDD0",
" $	c #B3C5C1",
".$	c #1B6E72",
"+$	c #1C6E71",
"@$	c #BED6C7",
"#$	c #B4E2C3",
"$$	c #B2E8C2",
"%$	c #97ECB0",
"&$	c #AFF19B",
"*$	c #B0F19B",
"=$	c #B0F29B",
"-$	c #AEF19D",
";$	c #7EE7C1",
">$	c #CCE6BF",
",$	c #93A29A",
"'$	c #306859",
")$	c #3C7263",
"!$	c #D9DAD5",
"~$	c #DBDCD8",
"{$	c #7D948C",
"]$	c #2B685D",
"^$	c #4C736A",
"/$	c #D4DBCE",
"($	c #86E7C2",
"_$	c #8AE9BC",
":$	c #A2E2CD",
"<$	c #60888E",
"[$	c #146D76",
"}$	c #8EA8A5",
"|$	c #C3EEAD",
"1$	c #B9F396",
"2$	c #B9F395",
"3$	c #BAF395",
"4$	c #BBF394",
"5$	c #8DE9BC",
"6$	c #AEEDAB",
"7$	c #D2D6CB",
"8$	c #3D6C62",
"9$	c #2D695D",
"0$	c #83978F",
"a$	c #DBDCD7",
"b$	c #CDCCC8",
"c$	c #C3C8C3",
"d$	c #2A6C63",
"e$	c #26625A",
"f$	c #9EA9A3",
"g$	c #D2E7BB",
"h$	c #C4F396",
"i$	c #ADC0B9",
"j$	c #5C848E",
"k$	c #5C848D",
"l$	c #91A6AA",
"m$	c #CBE0C0",
"n$	c #C8F19F",
"o$	c #C4F58F",
"p$	c #C5F58E",
"q$	c #ABEFAA",
"r$	c #93EABC",
"s$	c #D5E5C0",
"t$	c #909F98",
"u$	c #27635A",
"v$	c #2D6D64",
"w$	c #C5C9C4",
"x$	c #CDCDC8",
"y$	c #DEDFDB",
"z$	c #7C938E",
"A$	c #23635D",
"B$	c #2E635E",
"C$	c #C3C6BF",
"D$	c #D3ECAD",
"E$	c #D3F0A6",
"F$	c #A6E5CC",
"G$	c #C5ECB4",
"H$	c #D3F0A5",
"I$	c #D4F0A5",
"J$	c #D2F29E",
"K$	c #CEF789",
"L$	c #CEF788",
"M$	c #CFF788",
"N$	c #B4F0A7",
"O$	c #8BE7C6",
"P$	c #D3EBAF",
"Q$	c #25605A",
"R$	c #25645E",
"S$	c #7F958F",
"T$	c #DFDFDC",
"U$	c #C9C9C5",
"V$	c #D4D6D3",
"W$	c #3E716D",
"X$	c #1F5D5A",
"Y$	c #486E6A",
"Z$	c #CBCDC4",
"`$	c #D8EEA5",
" %	c #D2F78A",
".%	c #87E6CB",
"+%	c #BBF1A6",
"@%	c #D8F883",
"#%	c #D8F882",
"$%	c #D9F882",
"%%	c #D9F982",
"&%	c #D5F887",
"*%	c #9EEAC0",
"=%	c #9BE9C1",
"-%	c #D8ECAB",
";%	c #C5C8C0",
">%	c #3A6863",
",%	c #205E5A",
"'%	c #42746F",
")%	c #D5D7D3",
"!%	c #D7D7D4",
"~%	c #BCC3C0",
"{%	c #246765",
"]%	c #1B5B5A",
"^%	c #466C6A",
"/%	c #C1C4BD",
"(%	c #DDE8B4",
"_%	c #DFF885",
":%	c #A9EBBD",
"<%	c #8FE6CD",
"[%	c #C2F1A6",
"}%	c #DDF982",
"|%	c #E3FA7C",
"1%	c #E1FA7D",
"2%	c #CDF49A",
"3%	c #A3EAC3",
"4%	c #8BE5D0",
"5%	c #C9F1A6",
"6%	c #DEE6B8",
"7%	c #BBBEB8",
"8%	c #396563",
"9%	c #1C5B5A",
"0%	c #276967",
"a%	c #BFC5C1",
"b%	c #DDDEDA",
"c%	c #B2BBB8",
"d%	c #206365",
"e%	c #18585A",
"f%	c #265D5E",
"g%	c #9BA4A0",
"h%	c #D7D8C7",
"i%	c #E3ECA8",
"j%	c #E3F68D",
"k%	c #BFEFB3",
"l%	c #A0E8CA",
"m%	c #94E6D0",
"n%	c #96E6D2",
"o%	c #98E7CC",
"p%	c #B5ECBD",
"q%	c #D9F39C",
"r%	c #E3EBAB",
"s%	c #D5D5C6",
"t%	c #929D99",
"u%	c #1C5A5B",
"v%	c #19595A",
"w%	c #246667",
"x%	c #B5BDBA",
"y%	c #DDDEDB",
"z%	c #BDC4C2",
"A%	c #396B6E",
"B%	c #15575A",
"C%	c #145659",
"D%	c #426768",
"E%	c #9AA39F",
"F%	c #C6C7C0",
"G%	c #DEDEC4",
"H%	c #E4E6B5",
"I%	c #E7E9AE",
"J%	c #E4E5B7",
"K%	c #DDDDC4",
"L%	c #C3C5BE",
"M%	c #959F9C",
"N%	c #386364",
"O%	c #155759",
"P%	c #16585B",
"Q%	c #3C6E70",
"R%	c #BFC5C3",
"S%	c #DEDEDB",
"T%	c #D8D9D5",
"U%	c #D5D8D6",
"V%	c #7A9191",
"W%	c #145B61",
"X%	c #125459",
"Y%	c #3D6467",
"Z%	c #697D7D",
"`%	c #768887",
" &	c #758786",
".&	c #677C7C",
"+&	c #376164",
"@&	c #155D62",
"#&	c #7D9393",
"$&	c #D6D9D6",
"%&	c #D8D9D6",
"&&	c #CBCBC8",
"*&	c #E1E3E0",
"=&	c #C5CBC9",
"-&	c #7B9092",
";&	c #1C5D64",
">&	c #0F545C",
",&	c #0F5159",
"'&	c #0F555C",
")&	c #1F5E65",
"!&	c #7E9394",
"~&	c #C7CBCA",
"{&	c #E2E3E0",
"]&	c #D0D1CD",
"^&	c #DFE1DE",
"/&	c #DBDEDC",
"(&	c #B9C1C1",
"_&	c #9DABAC",
":&	c #7E9092",
"<&	c #6F8688",
"[&	c #708689",
"}&	c #7E9093",
"|&	c #9EABAC",
"1&	c #BAC2C1",
"2&	c #DCDFDC",
"3&	c #D4D5D2",
"4&	c #D6D7D4",
"5&	c #DEDFDC",
"6&	c #DCDDDA",
"7&	c #D5D5D2",
"                        . + @ # # @ + .                         ",
"                  $ % & * = - ; ; - > , & % '                   ",
"              ) ! ~ { ] ^ / ( ( _ _ ( : < [ } ! |               ",
"            1 2 3 4 5 6 6 7 8 9 9 0 a b b c d e f g             ",
"          h i j k l m n o p q r s t u v w x y z A B C           ",
"        h D E F G H I J K L M N O P Q R S T U V W X Y h         ",
"      Z `  ...+.@.#.$.%.&.*.=.-.;.>.,.'.).!.~.{.].^./.(.Z       ",
"    _.:.<.[.}.|.1.2.3.4.5.6.7.8.8.9.9.9.0.a.b.c.d.e.f.g.h._.    ",
"    i.j.k.l.m.n.o.p.q.r.s.t.u.v.v.v.v.v.w.w.x.y.z.A.B.C.D.E.    ",
"  F.G.H.I.J.K.L.M.N.O.P.Q.R.S.S.S.T.U.V.W.X.Y.Z.`. +.+++@+#+F.  ",
"  $+%+&+*+=+-+;+>+,+'+)+!+~+~+{+]+^+/+(+_+:+<+[+}+|+1+2+3+4+5+  ",
"  6+7+8+9+0+a+b+c+a+d+e+f+g+b+h+i+j+k+l+m+n+o+p+q+r+s+t+u+v+w+  ",
"x+y+z+A+B+C+D+E+F+G+H+I+J+K+L+M+N+O+P+Q+R+S+T+U+V+W+X+Y+Z+`+ @x+",
".@+@@@#@$@%@&@*@=@-@;@>@,@'@)@!@~@{@]@]@]@^@/@(@_@:@<@[@}@|@1@.@",
"2@3@4@5@6@7@8@9@0@a@b@c@d@e@f@g@h@i@h@j@k@k@k@l@l@m@n@o@p@q@r@5+",
"s@t@u@v@w@x@x@y@z@A@y@B@C@D@E@F@F@G@H@I@J@J@J@B@B@B@K@L@M@N@O@s@",
"P@Q@R@S@T@U@U@K@V@W@U@X@Y@Z@`@ #G@H@U@.#.#+#+#+#+#@#W@##$#%#&#P@",
"*#=#-#;#>#,#,#'#)#!#~#{#]#^#/#(#_#:#i@<#[#[#[#[#}#<#|#1#2#3#4#*#",
"5#6#7#8#9#0#0#|#a#b#c#d#e#f#g#h#i#i#j#j#j#k#k#l#l#m#n#o#p#q#r#5#",
"s#t#u#v#w#x#y#z#A#B#C#D#E#F#G#H#I#J#K#K#L#M#M#M#M#N#O#P#Q#R#S#s#",
"  T#U#V#W#X#Y#Z#`# $.$+$@$#$$$%$Y#&$&$*$*$*$=$=$-$;$>$,$'$)$!$  ",
"  ~${$]$^$/$($_$:$<$[$[$}$|$1$2$2$3$3$3$3$3$3$4$5$6$7$8$9$0$a$  ",
"  b$c$d$e$f$g$h$i$j$k$k$k$l$m$n$o$o$o$o$o$p$p$q$r$s$t$u$v$w$x$  ",
"    y$z$A$B$C$D$E$F$G$H$I$I$I$J$K$K$L$M$M$M$N$O$P$S#Q$R$S$T$    ",
"    U$V$W$X$Y$Z$`$ %.%+%@%@%@%@%#%$%%%%%&%*%=%-%;%>%,%'%)%U$    ",
"      !%~%{%]%^%/%(%_%:%<%[%}%|%|%1%2%3%4%5%6%7%8%9%0%a%!%      ",
"        b%c%d%e%f%g%h%i%j%k%l%m%n%o%p%q%r%s%t%u%v%w%x%b%        ",
"          y%z%A%B%C%D%E%F%G%H%I%I%J%K%L%M%N%O%P%Q%R%S%          ",
"            T%U%V%W%X%X%X%Y%Z%`% &.&+&X%X%X%@&#&$&%&            ",
"              &&*&=&-&;&>&,&,&,&,&,&,&'&)&!&~&{&&&              ",
"                  ]&^&/&(&_&:&<&[&}&|&1&2&^&]&                  ",
"                        3&4&5&6&6&5&4&7&                        "};
