/* XPM */
static char * bitcoin16_xpm[] = {
"16 16 190 2",
"  	c None",
". 	c #CECBC4",
"+ 	c #BCBAAE",
"@ 	c #BAB8A6",
"# 	c #CCCAC2",
"$ 	c #B3B4A1",
"% 	c #A1A783",
"& 	c #AAB18B",
"* 	c #B3B999",
"= 	c #B3B998",
"- 	c #B2B4A1",
"; 	c #C6C5BC",
"> 	c #979F80",
", 	c #A5AF8E",
"' 	c #CED5B9",
") 	c #B5E1E1",
"! 	c #B1E5E2",
"~ 	c #B5E6E1",
"{ 	c #B1E0E2",
"] 	c #BECFC7",
"^ 	c #A4AE8D",
"/ 	c #C7C5BC",
"( 	c #CDCBC4",
"_ 	c #8C997B",
": 	c #A6B199",
"< 	c #BDE3D3",
"[ 	c #A7EBBE",
"} 	c #A4EAD4",
"| 	c #69DFE6",
"1 	c #3DDBEA",
"2 	c #81E3D7",
"3 	c #8DE5D1",
"4 	c #B4E0D8",
"5 	c #A5B096",
"6 	c #8D997C",
"7 	c #CECCC5",
"8 	c #A8AF9F",
"9 	c #889B7C",
"0 	c #A9DFDA",
"a 	c #A0ECB7",
"b 	c #A1D6C7",
"c 	c #A9CDC4",
"d 	c #53DFE5",
"e 	c #38DDE4",
"f 	c #3BDDE4",
"g 	c #80E3E9",
"h 	c #97E9D2",
"i 	c #B1DFD3",
"j 	c #869979",
"k 	c #A9AF9F",
"l 	c #D1D0CA",
"m 	c #6A8565",
"n 	c #ADC5BA",
"o 	c #79E6C8",
"p 	c #80E7C3",
"q 	c #96AB96",
"r 	c #9AE8D5",
"s 	c #73E5CA",
"t 	c #87DAD2",
"u 	c #AFC3B6",
"v 	c #879677",
"w 	c #7F8F6C",
"x 	c #A8E1BD",
"y 	c #AEC3B6",
"z 	c #6D8666",
"A 	c #D2D0CA",
"B 	c #BBBEB6",
"C 	c #4F7855",
"D 	c #A9E0D0",
"E 	c #7DE8BF",
"F 	c #82E9BB",
"G 	c #A2D9B4",
"H 	c #A9C3B5",
"I 	c #A0C4B4",
"J 	c #A7DBBD",
"K 	c #6FE5CC",
"L 	c #7CE4CC",
"M 	c #92B9A3",
"N 	c #9CDABA",
"O 	c #AFDFC9",
"P 	c #527955",
"Q 	c #BCBFB6",
"R 	c #AEB4AB",
"S 	c #728D79",
"T 	c #A1E5C9",
"U 	c #78E8BD",
"V 	c #8BEBB2",
"W 	c #78E8BE",
"X 	c #A2D4B5",
"Y 	c #9CDBBE",
"Z 	c #81E9B8",
"` 	c #77E8BE",
" .	c #AEE7C6",
"..	c #5D8167",
"+.	c #AFB3A9",
"@.	c #AEB5AD",
"#.	c #6F8B7B",
"$.	c #AAE7C1",
"%.	c #86EAB5",
"&.	c #9CDCBC",
"*.	c #99D6B7",
"=.	c #95AFA4",
"-.	c #9DE0B9",
";.	c #8AEBB2",
">.	c #8CEBB1",
",.	c #8DEBB1",
"'.	c #ADE6C5",
").	c #587F6A",
"!.	c #AFB4AB",
"~.	c #BCC0BA",
"{.	c #366E5C",
"].	c #BBE3BC",
"^.	c #9EE7B3",
"/.	c #A8C8B9",
"(.	c #739792",
"_.	c #9AB8AC",
":.	c #A5DEC3",
"<.	c #84E9B9",
"[.	c #A0EFA5",
"}.	c #A1EFA4",
"|.	c #97EDAD",
"1.	c #B6DFBE",
"2.	c #376E5B",
"3.	c #BDC1BB",
"4.	c #D4D5D0",
"5.	c #4C776C",
"6.	c #ACBFAB",
"7.	c #9BEAB9",
"8.	c #9DCBC1",
"9.	c #186D74",
"0.	c #B7DBBF",
"a.	c #AFEFAA",
"b.	c #B5F298",
"c.	c #B6F298",
"d.	c #9CECB2",
"e.	c #AABBA9",
"f.	c #50786D",
"g.	c #D6D5D1",
"h.	c #A3AFAA",
"i.	c #597973",
"j.	c #CCE5B2",
"k.	c #ABCFB1",
"l.	c #A5C6A0",
"m.	c #B1CDA2",
"n.	c #CFEFA8",
"o.	c #C9F68C",
"p.	c #CAF68C",
"q.	c #CAF68B",
"r.	c #ADEFAB",
"s.	c #C0E0B8",
"t.	c #51756E",
"u.	c #A5B0AB",
"v.	c #D3D4D1",
"w.	c #688481",
"x.	c #768985",
"y.	c #D4E6AA",
"z.	c #B7EFAE",
"A.	c #C1F2A4",
"B.	c #DEF97F",
"C.	c #CBF49A",
"D.	c #B5EEB2",
"E.	c #C6E0B7",
"F.	c #748783",
"G.	c #6B8783",
"H.	c #D3D5D1",
"I.	c #CCCFCC",
"J.	c #678282",
"K.	c #547171",
"L.	c #B4BCA2",
"M.	c #D3E4B2",
"N.	c #BEE5C7",
"O.	c #BBE4CA",
"P.	c #CDE2B6",
"Q.	c #B2BAA2",
"R.	c #4F6E6E",
"S.	c #6A8484",
"T.	c #D4D6D3",
"U.	c #A3AEAE",
"V.	c #42696E",
"W.	c #105359",
"X.	c #5C7576",
"Y.	c #5A7375",
"Z.	c #11535A",
"`.	c #446A6F",
" +	c #A5AFAF",
".+	c #D5D6D3",
"++	c #D8DAD7",
"@+	c #BEC5C3",
"#+	c #AFB6B6",
"$+	c #BFC5C3",
"          . + @ @ + .           ",
"      # $ % & * = & % - #       ",
"    ; > , ' ) ! ~ { ] ^ > /     ",
"  ( _ : < [ } | 1 2 3 4 5 6 7   ",
"  8 9 0 a b c d e f g h i j k   ",
"l m n o p q r s t u v w x y z A ",
"B C D E F G H I J K L M N O P Q ",
"R S T U V W X Y Z U ` U U  ...+.",
"@.#.$.%.&.*.=.-.Z ;.>.>.,.'.).!.",
"~.{.].^./.(._.:.<.[.}.}.|.1.2.3.",
"4.5.6.7.8.9.0.a.b.b.b.c.d.e.f.g.",
"  h.i.j.k.l.m.n.o.p.q.r.s.t.u.  ",
"  v.w.x.y.z.A.B.B.C.D.E.F.G.H.  ",
"    I.J.K.L.M.N.O.P.Q.R.S.I.    ",
"      T.U.V.W.X.Y.Z.`. +.+      ",
"          ++@+#+#+$+++          "};
